<svg width="2529" height="510" xmlns="http://www.w3.org/2000/svg" xmlns:xlink="http://www.w3.org/1999/xlink"><defs><linearGradient x1="69.629%" y1="50.022%" x2="-19.425%" y2="50%" id="b"><stop stop-color="#5D5D5D" offset="0%"/><stop stop-color="#3F3F3F" offset="31.539%"/><stop stop-color="#1C1C1C" offset="100%"/></linearGradient><path id="a" d="M0 0h2529v510H0z"/></defs><g fill="none" fill-rule="evenodd"><mask id="c" fill="#fff"><use xlink:href="#a"/></mask><use fill="url(#b)" xlink:href="#a"/><path d="M2206.219 156.852c-729.28-214.309-1006.307-175.484-1356.513 86.77-350.205 262.254-1165.886 61.397-1275.618 7.03-73.155-36.246 80.38 313.893 460.603 1050.415h2134.29c511.011-619.937 523.424-1001.342 37.238-1144.215z" fill="#424C53" opacity=".07" style="mix-blend-mode:screen" mask="url(#c)" transform="rotate(10 1059.081 659.749)"/><path d="M1888.067 210C1466.99 78.961 1128.505 261.998 689.161 400.18 249.817 538.365-312.442 204.015-409.46 157-474.14 125.657-563.985 331.627-679 774.908h3560.709C2499.999 485.662 2168.785 297.359 1888.067 210z" fill="#20252D" opacity=".3" style="mix-blend-mode:screen" mask="url(#c)" transform="matrix(-1 0 0 1 2202.709 0)"/><path d="M2441.086 312c-453.394-107.715-783.296-66.298-1308.562 82-350.177 98.866-794.977 43.532-1334.4-166v532.566H2929C2905.987 533.332 2743.349 383.81 2441.086 312z" fill="#20252D" opacity=".3" style="mix-blend-mode:screen" mask="url(#c)"/></g></svg>